:SAMPLES-PER-SECOND 30
:FULLY-SPECIFIED
:DEGREES
266
root  -6.76373 39.2639 11.6823 -157.21 -78.6745 150.787
RightUpLeg  8.46613 3.39634 -9.81886
RightLeg  45.3837 -17.1376 -18.0117
RightFoot  18.5773 -2.30173 9.08535
RightToes  -5.8209e-011 0 -3.6325e-017
Spine  -2.00431 14.4332 46.4378
Spine1  5.34546 16.8721 -15.3
HEad  10.4179 -42.9471 -0.391727
LeftShoulder1  7.34047 -15.6583 -32.2781
LeftArm  -13.1972 -41.6238 -56.0783
LeftForeArm  -10.402 -30.1938 -7.12698
LeftHand  -0.246645 0.021 5.37786
RightShoulder  6.34772 16.186 26.1177
RightArm  113.036 66.6059 123.663
RightForeArm  30.212 14.1245 12.4302
RightHand  -0.24729 -0.0210522 -5.37781
LeftUpLeg  -6.1894 -6.54995 -10.2298
LeftLeg  31.6982 -54.4548 -28.3292
LeftFoot  4.2906 -0.0548822 0.21017
LeftToes  -7.45818e-011 -3.37383e-011 1.08613e-011
267
root  -6.76268 39.2968 11.5986 -153.664 -79.573 147.531
RightUpLeg  8.2381 3.59469 -9.50375
RightLeg  45.4853 -16.715 -17.6735
RightFoot  19.4536 -2.4747 9.46366
RightToes  -5.8209e-011 0 -3.6325e-017
Spine  -2.6008 14.9639 46.2746
Spine1  5.21193 17.1985 -15.6859
HEad  10.5609 -43.1745 -0.560251
LeftShoulder1  7.30727 -15.6019 -32.2178
LeftArm  -15.3787 -41.4233 -54.1845
LeftForeArm  -7.21449 -32.1676 -7.48092
LeftHand  -0.246645 0.021 5.37786
RightShoulder  6.2544 16.0967 25.7755
RightArm  116.373 65.9737 125.312
RightForeArm  28.2943 15.9478 10.915
RightHand  -0.24729 -0.0210522 -5.37781
LeftUpLeg  -6.2253 -6.822 -10.2235
LeftLeg  31.548 -55.3776 -28.468
LeftFoot  4.36804 -0.00663046 -0.14412
LeftToes  -7.45818e-011 -3.37383e-011 1.08613e-011
268
root  -6.76375 39.3336 11.5199 -149.73 -80.3656 143.879
RightUpLeg  8.01132 3.82411 -9.24755
RightLeg  45.539 -16.1358 -17.1542
RightFoot  20.2369 -2.65213 9.8621
RightToes  -5.8209e-011 0 -3.6325e-017
Spine  -3.18277 15.4784 46.1442
Spine1  5.14137 17.5316 -16.1018
HEad  10.6594 -43.5464 -0.66473
LeftShoulder1  7.25475 -15.5326 -32.0815
LeftArm  -17.757 -41.1706 -52.2427
LeftForeArm  -3.72133 -34.268 -7.86819
LeftHand  -0.246645 0.021 5.37786
RightShoulder  6.13757 15.9778 25.3545
RightArm  119.777 65.3304 126.957
RightForeArm  25.9169 17.7676 9.19097
RightHand  -0.24729 -0.0210522 -5.37781
LeftUpLeg  -6.2369 -6.77868 -10.2059
LeftLeg  31.5079 -56.5108 -28.7527
LeftFoot  4.50289 0.0265646 -0.387433
LeftToes  -7.45818e-011 -3.37383e-011 1.08613e-011
269
root  -6.76935 39.3671 11.4423 -145.054 -81.1801 139.445
RightUpLeg  7.8763 4.09496 -8.95499
RightLeg  45.5482 -15.4284 -16.4803
RightFoot  21.0232 -2.83253 10.2483
RightToes  -5.8209e-011 0 -3.6325e-017
Spine  -3.55077 15.901 45.9972
Spine1  4.71319 17.8188 -16.6399
HEad  10.7845 -44.1331 -0.735035
LeftShoulder1  7.19577 -15.4619 -31.9128
LeftArm  -20.3227 -40.8267 -50.3728
LeftForeArm  -0.215214 -36.4725 -8.3044
LeftHand  -0.246645 0.021 5.37786
RightShoulder  6.07508 15.8863 25.1742
RightArm  123.957 64.7793 128.319
RightForeArm  22.4621 19.7971 7.12075
RightHand  -0.24729 -0.0210522 -5.37781
LeftUpLeg  -6.21591 -6.68654 -10.1812
LeftLeg  31.662 -57.754 -29.2242
LeftFoot  4.69843 0.0591375 -0.622163
LeftToes  -7.45818e-011 -3.37383e-011 1.08613e-011
270
root  -6.77808 39.3918 11.3601 -139.218 -82.0136 133.803
RightUpLeg  7.82462 4.45525 -8.56423
RightLeg  45.5322 -14.6601 -15.726
RightFoot  21.9184 -2.99665 10.5267
RightToes  -5.8209e-011 0 -3.6325e-017
Spine  -3.80941 16.2497 45.7395
Spine1  4.07544 18.0236 -17.1196
HEad  10.8798 -44.7513 -0.807666
LeftShoulder1  7.157 -15.3907 -31.851
LeftArm  -22.7983 -40.509 -48.4871
LeftForeArm  3.00014 -38.7146 -8.79573
LeftHand  -0.246645 0.021 5.37786
RightShoulder  6.03677 15.8293 25.0641
RightArm  127.051 64.2773 129.66
RightForeArm  20.0836 21.5732 5.30353
RightHand  -0.24729 -0.0210522 -5.37781
LeftUpLeg  -6.18792 -6.65865 -10.1479
LeftLeg  32.0463 -58.9921 -29.8921
LeftFoot  4.91162 0.113222 -1.00186
LeftToes  -7.45818e-011 -3.37383e-011 1.08613e-011
271
root  -6.78692 39.4095 11.2748 -132.093 -82.7607 126.854
RightUpLeg  7.74528 4.86353 -8.12456
RightLeg  45.5372 -13.849 -14.9323
RightFoot  22.9113 -3.10332 10.5729
RightToes  -5.8209e-011 0 -3.6325e-017
Spine  -4.22272 16.6153 45.3914
Spine1  3.7003 18.1935 -17.3961
HEad  10.8833 -45.2854 -0.924645
LeftShoulder1  7.12826 -15.3089 -31.8639
LeftArm  -25.0668 -40.3443 -46.5226
LeftForeArm  6.21233 -40.966 -9.32403
LeftHand  -0.246645 0.021 5.37786
RightShoulder  5.94804 15.7413 24.7313
RightArm  128.013 63.7085 131.499
RightForeArm  20.0649 22.7547 4.32439
RightHand  -0.24729 -0.0210522 -5.37781
LeftUpLeg  -6.19528 -6.59435 -10.1094
LeftLeg  32.6708 -60.19 -30.7674
LeftFoot  5.1174 0.177546 -1.44288
LeftToes  -7.45818e-011 -3.37383e-011 1.08613e-011
